<svg width="80" height="92" xmlns="http://www.w3.org/2000/svg" xmlns:xlink="http://www.w3.org/1999/xlink"><defs><path d="M29.572 65.669l19.733 22.693-5.01 3.19a8 8 0 01-8.59 0l-17.346-11.04 11.213-14.843zm22.134-29.3l17.959 27.646-14.396 20.55-4.449 2.833-19.218-24.416 20.104-26.613zm19.023 29.284l4.17 6.42-15.64 9.954 11.47-16.374zm-48.685-8.641l5.759 6.623L16.927 79.6l-4.695-2.988 9.812-19.6zM0 31.662l20.433 23.497-9.34 20.728-7.388-4.702A8 8 0 010 64.435V31.663zm80 20.752v12.022a8 8 0 01-3.571 6.662l-4.58-7.047L80 52.414zM66.482 16.809l9.805 6.222A8 8 0 0180 29.785V49.26l-9.213 13.155-17.92-27.583 13.615-18.022zM40.79 19.566l8.315 12.8-19.301 28.332-5.872-7.458L40.79 19.566zm-9.231-14.21l6.68 10.284-15.982 35.471L1.644 24.927a7.993 7.993 0 012.07-1.896L31.558 5.357zM48.033 5.1l13.717 8.706-11.538 16.937-8.481-13.055 6.302-12.588zM44.11 2.612l-4.985 11.063-6.035-9.29 2.623-1.664a8 8 0 018.397-.11z" id="a"/></defs><use fill="#D8DEE9" xlink:href="#a" transform="translate(0 -1)" fill-rule="evenodd"/></svg>
