<?xml version="1.0" standalone="no"?>
<!DOCTYPE svg PUBLIC "-//W3C//DTD SVG 20010904//EN"
 "http://www.w3.org/TR/2001/REC-SVG-20010904/DTD/svg10.dtd">
<svg version="1.0" xmlns="http://www.w3.org/2000/svg"
 width="254.000000pt" height="254.000000pt" viewBox="0 0 254.000000 254.000000"
 preserveAspectRatio="xMidYMid meet">
<metadata>
Created by potrace 1.11, written by Peter Selinger 2001-2013
</metadata>
<g transform="translate(0.000000,254.000000) scale(0.100000,-0.100000)"
fill="#000000" stroke="none">
<path d="M1205 2482 c-27 -9 -125 -66 -124 -72 1 -14 156 -235 163 -233 8 2
123 249 129 275 5 26 -114 47 -168 30z"/>
<path d="M1474 2378 c-4 -6 -42 -81 -85 -166 l-78 -154 58 -87 c102 -152 136
-205 146 -225 6 -11 15 -21 21 -23 6 -2 42 42 80 97 38 55 106 153 151 218
l82 117 -22 19 c-12 10 -44 32 -72 48 -27 16 -99 60 -158 98 -60 39 -110 70
-112 70 -2 0 -7 -5 -11 -12z"/>
<path d="M930 2318 c-52 -33 -221 -139 -375 -235 -154 -96 -289 -183 -299
-194 -19 -18 -19 -18 10 -56 16 -21 36 -47 45 -58 10 -11 119 -148 244 -305
124 -157 230 -286 234 -288 4 -1 52 95 106 215 54 120 120 263 145 318 26 55
77 168 114 250 l67 151 -87 132 c-48 73 -92 132 -98 132 -6 -1 -54 -28 -106
-62z"/>
<path d="M1798 1853 c-96 -126 -177 -233 -181 -239 -3 -6 64 -119 151 -250 87
-132 193 -294 237 -361 44 -68 83 -122 87 -120 4 1 61 78 127 170 l119 169 -1
276 c0 154 -4 290 -10 307 -19 59 -59 95 -203 184 -80 50 -147 91 -149 91 -2
0 -82 -102 -177 -227z"/>
<path d="M1264 1968 c-11 -24 -111 -222 -222 -442 -112 -219 -201 -404 -198
-411 3 -8 37 -54 76 -104 l72 -91 17 23 c10 12 44 60 76 107 217 316 372 541
398 577 18 26 26 46 21 55 -29 47 -214 328 -217 328 -2 0 -12 -19 -23 -42z"/>
<path d="M195 1228 c1 -572 -16 -514 188 -643 87 -55 111 -65 118 -54 5 8 9
17 9 20 0 4 22 53 49 110 26 57 77 167 111 244 35 77 66 145 71 150 4 6 -23
44 -63 90 -133 151 -186 210 -213 243 -16 19 -40 46 -54 60 -14 15 -47 52 -72
82 -26 30 -69 79 -96 108 l-48 54 0 -464z"/>
<path d="M1374 1299 c-109 -144 -229 -300 -266 -347 -49 -64 -64 -90 -58 -102
8 -13 382 -484 467 -588 19 -23 39 -42 44 -42 5 0 33 16 63 35 45 28 73 61
158 182 58 82 138 195 178 253 41 58 80 111 87 118 7 7 13 18 13 23 0 5 -84
136 -186 292 -275 417 -288 437 -295 437 -3 0 -95 -118 -205 -261z"/>
<path d="M2271 1052 c-30 -42 -76 -109 -104 -148 l-50 -72 57 -85 c31 -47 61
-89 67 -92 14 -9 54 29 76 74 14 30 18 67 20 219 1 100 -1 182 -5 181 -4 0
-31 -35 -61 -77z"/>
<path d="M653 761 l-133 -261 63 -39 c48 -31 65 -37 74 -28 6 7 73 101 148
210 l136 198 -25 32 c-13 18 -49 58 -78 90 l-53 59 -132 -261z"/>
<path d="M965 764 c-11 -15 -45 -59 -75 -98 -141 -181 -202 -267 -196 -274 8
-7 51 -35 336 -213 l165 -104 70 0 c67 0 74 2 158 54 48 29 87 58 87 63 0 7
-169 204 -230 268 -8 9 -30 34 -48 55 -46 55 -147 169 -202 228 l-45 48 -20
-27z"/>
<path d="M1940 584 c-80 -112 -146 -208 -148 -214 -2 -6 40 17 95 51 54 34
146 92 205 128 59 36 107 69 108 72 0 8 -98 157 -107 162 -5 3 -73 -87 -153
-199z"/>
</g>
</svg>
